<?xml version="1.0" encoding="UTF-8"?>
<svg version="1.1" xmlns="http://www.w3.org/2000/svg" width="500" height="500">
<path d="M0 0 C3.11265043 1.35752455 5.02196828 3.4574187 7.390625 5.87109375 C8.28265625 6.76699219 9.1746875 7.66289062 10.09375 8.5859375 C12.140625 10.93359375 12.140625 10.93359375 12.140625 12.93359375 C12.800625 12.93359375 13.460625 12.93359375 14.140625 12.93359375 C31.43629612 34.00679055 41.23938787 58.62565964 41.140625 85.93359375 C41.14449219 86.94873047 41.14449219 86.94873047 41.1484375 87.984375 C41.07737539 106.28286889 36.32805325 124.10332468 30.640625 141.37109375 C30.27324219 142.48983887 29.90585937 143.60858398 29.52734375 144.76123047 C28.46971584 147.85236293 27.34236639 150.89580142 26.140625 153.93359375 C25.78484375 154.83996582 25.4290625 155.74633789 25.0625 156.68017578 C22.43788578 162.37770091 22.43788578 162.37770091 19.35620117 163.69824219 C16.90988562 164.03495174 14.61039183 164.00520006 12.140625 163.93359375 C9.73046388 163.98937343 7.32030807 164.04538253 4.91015625 164.1015625 C2.93140783 164.11040936 0.95264514 164.11913747 -1.02612305 164.11889648 C-3.05343087 164.12110088 -5.0802085 164.13937149 -7.10742188 164.15820312 C-8.40099609 164.16013672 -9.69457031 164.16207031 -11.02734375 164.1640625 C-12.19547607 164.16817139 -13.3636084 164.17228027 -14.56713867 164.17651367 C-18.03404797 163.92070538 -20.68369133 163.34621952 -23.859375 161.93359375 C-25.16381836 160.35913086 -25.16381836 160.35913086 -25.94921875 158.4609375 C-26.25512939 157.7388208 -26.56104004 157.0167041 -26.8762207 156.27270508 C-27.18003662 155.48017334 -27.48385254 154.6876416 -27.796875 153.87109375 C-28.12969482 153.04053467 -28.46251465 152.20997559 -28.80541992 151.35424805 C-32.67091404 141.36586985 -35.53672793 131.07259536 -38.15917969 120.69824219 C-38.57545027 119.05464106 -39.00194973 117.41349056 -39.45019531 115.77832031 C-46.94607686 88.36030616 -42.42783255 56.96803639 -28.921875 32.3046875 C-26.68255451 28.42786391 -24.34250676 24.65829138 -21.859375 20.93359375 C-21.199375 20.93359375 -20.539375 20.93359375 -19.859375 20.93359375 C-19.570625 20.17046875 -19.281875 19.40734375 -18.984375 18.62109375 C-17.859375 15.93359375 -17.859375 15.93359375 -15.859375 12.93359375 C-15.199375 12.93359375 -14.539375 12.93359375 -13.859375 12.93359375 C-13.60027344 12.34835938 -13.34117187 11.763125 -13.07421875 11.16015625 C-11.77319213 8.77563801 -10.36066494 7.20151984 -8.421875 5.30859375 C-7.82503906 4.71820313 -7.22820312 4.1278125 -6.61328125 3.51953125 C-2.61760467 -0.09348588 -2.61760467 -0.09348588 0 0 Z M-9.859375 58.93359375 C-9.859375 59.59359375 -9.859375 60.25359375 -9.859375 60.93359375 C-10.601875 61.09859375 -11.344375 61.26359375 -12.109375 61.43359375 C-16.16707485 63.64688458 -17.48294563 66.60450139 -18.859375 70.93359375 C-19.71926007 76.59928093 -19.16570944 81.13407601 -15.859375 85.93359375 C-12.08101812 89.91231804 -8.3671541 92.92196085 -2.859375 93.93359375 C2.96822461 93.74859059 7.59761247 92.72678868 12.140625 88.93359375 C15.90000972 84.90839395 17.48971618 80.98754596 17.828125 75.49609375 C17.52599818 69.46194975 15.3384091 65.2333108 11.140625 60.93359375 C4.45368809 56.97096447 -2.60069472 55.84865463 -9.859375 58.93359375 Z " fill="#F9F9F9" transform="translate(250.859375,128.06640625)"/>
<path d="M0 0 C1.21171875 0.00322266 2.4234375 0.00644531 3.671875 0.00976562 C4.94289062 0.01814453 6.21390625 0.02652344 7.5234375 0.03515625 C8.8021875 0.03966797 10.0809375 0.04417969 11.3984375 0.04882812 C14.56515042 0.06064422 17.73177106 0.0771181 20.8984375 0.09765625 C28.77791302 14.74566296 28.77791302 14.74566296 28.8984375 22.09765625 C28.94613281 22.95875 28.99382812 23.81984375 29.04296875 24.70703125 C29.34813199 32.88992704 27.87196127 40.39421116 22.8984375 47.09765625 C22.2384375 47.09765625 21.5784375 47.09765625 20.8984375 47.09765625 C20.84945312 46.06125 20.80046875 45.02484375 20.75 43.95703125 C20.67494153 42.58721417 20.59939503 41.21742377 20.5234375 39.84765625 C20.4925 39.16574219 20.4615625 38.48382813 20.4296875 37.78125 C20.21584376 34.11026587 19.88766695 31.23514009 17.8984375 28.09765625 C17.85976563 29.65613281 17.85976563 29.65613281 17.8203125 31.24609375 C17.34055058 44.69396573 14.36315611 54.91199227 4.8984375 65.09765625 C2.6484375 65.90625 2.6484375 65.90625 0.8984375 66.09765625 C1.3934375 65.10765625 1.8884375 64.11765625 2.3984375 63.09765625 C4.01610989 58.79156642 4.2356558 54.58995006 4.2734375 50.03515625 C4.28697266 49.36291016 4.30050781 48.69066406 4.31445312 47.99804688 C4.27081981 43.038393 2.93426295 39.56139204 0.8984375 35.09765625 C0.27401156 32.633358 -0.2905002 30.15296776 -0.7890625 27.66015625 C-1.04042969 26.42394531 -1.29179687 25.18773437 -1.55078125 23.9140625 C-1.73253906 22.98464844 -1.91429687 22.05523437 -2.1015625 21.09765625 C-2.29901579 22.80486779 -2.48403343 24.51351946 -2.6640625 26.22265625 C-2.76847656 27.17398437 -2.87289062 28.1253125 -2.98046875 29.10546875 C-3.10852066 32.26959003 -2.64175961 34.98357881 -2.1015625 38.09765625 C-2.03633377 40.38848914 -2.0156784 42.68101419 -2.0390625 44.97265625 C-2.04808594 46.12507813 -2.05710938 47.2775 -2.06640625 48.46484375 C-2.07800781 49.33367187 -2.08960938 50.2025 -2.1015625 51.09765625 C-3.4215625 51.09765625 -4.7415625 51.09765625 -6.1015625 51.09765625 C-7.4242065 48.56083109 -8.73473611 46.01887974 -10.0390625 43.47265625 C-10.41224609 42.75980469 -10.78542969 42.04695313 -11.16992188 41.3125 C-15.68009263 32.45468717 -15.88182728 23.78106178 -14.1015625 14.09765625 C-12.76171875 10.60546875 -12.76171875 10.60546875 -11.1640625 7.22265625 C-10.63941406 6.09085937 -10.11476562 4.9590625 -9.57421875 3.79296875 C-7.14122765 -0.65998578 -4.77341008 -0.02230565 0 0 Z " fill="#EFEFEF" transform="translate(243.1015625,296.90234375)"/>
<path d="M0 0 C0.18062988 0.648479 0.36125977 1.29695801 0.54736328 1.96508789 C3.78394026 13.51187784 6.99536787 24.89055435 11.8359375 35.87890625 C13.09791075 39.26251909 13.6116023 42.4186119 14 46 C12.68 46.66 11.36 47.32 10 48 C10 48.66 10 49.32 10 50 C9.34 50 8.68 50 8 50 C8 50.66 8 51.32 8 52 C6.30725716 53.56432787 4.54430148 55.05328572 2.75 56.5 C1.77546875 57.2940625 0.8009375 58.088125 -0.203125 58.90625 C-2.45985679 60.59564698 -4.49709104 61.77161381 -7 63 C-7.28875 63.598125 -7.5775 64.19625 -7.875 64.8125 C-9.5828571 68.13333325 -12.01910444 69.76432833 -15 72 C-15.66 72 -16.32 72 -17 72 C-18.92869599 68.01402828 -19.39557376 64.33946151 -19.75390625 59.98828125 C-19.89644924 57.9288014 -19.89644924 57.9288014 -21 56 C-23.71676976 41.42462941 -24.91816789 28.8067212 -16.46484375 16.0625 C-10.67634829 7.91229839 -10.67634829 7.91229839 -8 5 C-7.34 5 -6.68 5 -6 5 C-6 4.34 -6 3.68 -6 3 C-5.34 3 -4.68 3 -4 3 C-4 2.34 -4 1.68 -4 1 C-2 0 -2 0 0 0 Z " fill="#F2F2F2" transform="translate(207,245)"/>
<path d="M0 0 C1.32 0.33 2.64 0.66 4 1 C4 1.66 4 2.32 4 3 C4.66 3 5.32 3 6 3 C6 3.66 6 4.32 6 5 C6.66 5 7.32 5 8 5 C8 5.66 8 6.32 8 7 C8.66 7 9.32 7 10 7 C13 10.46153846 13 10.46153846 13 13 C13.66 13 14.32 13 15 13 C22.79541255 23.52804358 24.30789247 34.04721509 22.63085938 46.80908203 C19.82546864 65.38136558 19.82546864 65.38136558 17 72 C14.28775382 70.38731308 11.62647188 68.75098126 9 67 C9 66.34 9 65.68 9 65 C8.34 65 7.68 65 7 65 C7 64.34 7 63.68 7 63 C6.45601563 62.77441406 5.91203125 62.54882812 5.3515625 62.31640625 C2.26359881 60.58776213 -0.04454974 58.35449856 -2.625 55.9375 C-6.04209753 52.58466353 -6.04209753 52.58466353 -10 50 C-10 49.34 -10 48.68 -10 48 C-10.66 48 -11.32 48 -12 48 C-12 47.34 -12 46.68 -12 46 C-12.66 46 -13.32 46 -14 46 C-13.37528519 41.43958191 -12.20066024 37.38362884 -10.625 33.0625 C-9.99464844 31.31646484 -9.99464844 31.31646484 -9.3515625 29.53515625 C-8.46790544 27.22385672 -7.52044095 24.93570446 -6.50390625 22.6796875 C-4.68084824 18.2191144 -3.48687986 13.72808764 -2.3125 9.0625 C-2.08755859 8.18787109 -1.86261719 7.31324219 -1.63085938 6.41210938 C-1.08223208 4.27596479 -0.53874036 2.13865534 0 0 Z " fill="#F3F3F3" transform="translate(293,245)"/>
<path d="M0 0 C1.875 0.8125 1.875 0.8125 2.875 2.8125 C3.11608953 6.64075869 3.06019253 10.47749262 3.0625 14.3125 C3.07474609 15.38371094 3.08699219 16.45492187 3.09960938 17.55859375 C3.10250977 19.09193359 3.10250977 19.09193359 3.10546875 20.65625 C3.10957764 21.59662109 3.11368652 22.53699219 3.11791992 23.50585938 C2.875 25.8125 2.875 25.8125 0.875 27.8125 C-3.68055556 27.25694444 -3.68055556 27.25694444 -5.125 25.8125 C-5.40506266 22.02825935 -5.35680637 18.23087268 -5.375 14.4375 C-5.395625 13.37015625 -5.41625 12.3028125 -5.4375 11.203125 C-5.44523438 9.66785156 -5.44523438 9.66785156 -5.453125 8.1015625 C-5.4624707 7.16006348 -5.47181641 6.21856445 -5.48144531 5.24853516 C-5.125 2.8125 -5.125 2.8125 -3.73730469 0.97021484 C-2.125 -0.1875 -2.125 -0.1875 0 0 Z " fill="#DBDBDB" transform="translate(251.125,90.1875)"/>
<path d="M0 0 C3.85568837 1.44516912 5.0279121 4.31671669 6.82421875 7.80078125 C7.16646484 8.43048828 7.50871094 9.06019531 7.86132812 9.70898438 C8.80652348 11.45805461 9.72266992 13.2227344 10.63671875 14.98828125 C11.04277344 15.72949219 11.44882813 16.47070312 11.8671875 17.234375 C13.00064732 19.8177428 12.76302321 22.20958317 12.63671875 24.98828125 C10.98671875 25.31828125 9.33671875 25.64828125 7.63671875 25.98828125 C4.29848761 21.19401312 1.15492032 16.31516114 -1.73828125 11.23828125 C-2.24101562 10.3565625 -2.74375 9.47484375 -3.26171875 8.56640625 C-4.43758846 5.81437075 -4.58679303 3.94715153 -4.36328125 0.98828125 C-2.36328125 -0.01171875 -2.36328125 -0.01171875 0 0 Z " fill="#DCDCDC" transform="translate(198.36328125,103.01171875)"/>
<path d="M0 0 C2.625 0.375 2.625 0.375 5 1 C4.83073468 8.44767414 0.85037939 13.82930465 -3 20 C-3.52722656 20.92683594 -4.05445313 21.85367188 -4.59765625 22.80859375 C-6 25 -6 25 -8.0625 25.9375 C-8.701875 25.958125 -9.34125 25.97875 -10 26 C-12 24 -12 24 -12.4296875 21.91796875 C-11.7718738 17.4508157 -9.46782244 14.1171662 -7.125 10.3125 C-6.66480469 9.54099609 -6.20460938 8.76949219 -5.73046875 7.97460938 C-2.32726648 2.32726648 -2.32726648 2.32726648 0 0 Z " fill="#D9D9D9" transform="translate(301,103)"/>
<path d="M0 0 C0.8971875 0.309375 0.8971875 0.309375 1.8125 0.625 C2.5625 2.375 2.5625 2.375 2.8125 4.625 C1 6.875 1 6.875 -1.1875 8.625 C-1.8475 8.625 -2.5075 8.625 -3.1875 8.625 C-3.1875 9.285 -3.1875 9.945 -3.1875 10.625 C-8.59926471 14.625 -8.59926471 14.625 -11.1875 14.625 C-11.1875 15.285 -11.1875 15.945 -11.1875 16.625 C-14.00519349 18.79864926 -15.4065681 19.71177021 -19 19.3125 C-19.721875 19.085625 -20.44375 18.85875 -21.1875 18.625 C-21.1875 16.975 -21.1875 15.325 -21.1875 13.625 C-20.5275 13.625 -19.8675 13.625 -19.1875 13.625 C-19.1875 12.965 -19.1875 12.305 -19.1875 11.625 C-16.94877762 9.87424221 -14.71093246 8.23598791 -12.375 6.625 C-11.73240234 6.17382812 -11.08980469 5.72265625 -10.42773438 5.2578125 C-2.34762574 -0.40245013 -2.34762574 -0.40245013 0 0 Z " fill="#DCDCDC" transform="translate(343.1875,135.375)"/>
<path d="M0 0 C0.66 1.32 1.32 2.64 2 4 C-3.43980099 10.42397552 -15.1312044 10.70629086 -23 12 C-24.5625 9.625 -24.5625 9.625 -26 7 C-24.57054408 4.14108816 -22.99815804 4.01978165 -20 3 C-17.69853984 2.41319495 -15.3845375 1.87420024 -13.0625 1.375 C-11.87785156 1.11460937 -10.69320312 0.85421875 -9.47265625 0.5859375 C-6.23230706 0.03919692 -3.27702169 -0.1100679 0 0 Z " fill="#E2E2E2" transform="translate(163,222)"/>
<path d="M0 0 C1 1 1 1 1.0625 3.5625 C1.041875 4.366875 1.02125 5.17125 1 6 C-3.07121582 7.79727378 -7.07826964 8.7557879 -11.4375 9.625 C-12.71496094 9.88539063 -13.99242187 10.14578125 -15.30859375 10.4140625 C-18.6351848 10.94209283 -21.6420684 11.19246063 -25 11 C-26 10 -26 10 -26.0625 7.4375 C-26.041875 6.633125 -26.02125 5.82875 -26 5 C-22.28528034 2.78656601 -18.32097818 2.12950617 -14.125 1.375 C-13.08279297 1.17390625 -13.08279297 1.17390625 -12.01953125 0.96875 C-7.96839606 0.22108286 -4.11851874 -0.23930231 0 0 Z " fill="#DEDEDE" transform="translate(364,179)"/>
<path d="M0 0 C3.99217871 0.62100558 6.89897681 2.66671426 9.8125 5.4375 C9.8125 6.0975 9.8125 6.7575 9.8125 7.4375 C10.575625 7.72625 11.33875 8.015 12.125 8.3125 C14.8125 9.4375 14.8125 9.4375 17.8125 11.4375 C17.8125 12.0975 17.8125 12.7575 17.8125 13.4375 C18.4725 13.4375 19.1325 13.4375 19.8125 13.4375 C19.8125 15.0875 19.8125 16.7375 19.8125 18.4375 C16.4993604 19.47877245 15.21051692 19.62324123 12 18.125 C11.278125 17.568125 10.55625 17.01125 9.8125 16.4375 C9.8125 15.7775 9.8125 15.1175 9.8125 14.4375 C8.6678125 14.004375 8.6678125 14.004375 7.5 13.5625 C4.8125 12.4375 4.8125 12.4375 1.8125 10.4375 C1.8125 9.7775 1.8125 9.1175 1.8125 8.4375 C1.008125 8.19 0.20375 7.9425 -0.625 7.6875 C-3.1875 6.4375 -3.1875 6.4375 -4.125 4.4375 C-4.145625 3.7775 -4.16625 3.1175 -4.1875 2.4375 C-2.1875 0.4375 -2.1875 0.4375 0 0 Z " fill="#DDDDDD" transform="translate(158.1875,135.5625)"/>
<path d="M0 0 C8.34551674 0.06370623 18.48535461 1.2426773 26 5 C26.042721 6.66611905 26.04063832 8.33382885 26 10 C25 11 25 11 22.05859375 11.21875 C17.20215192 11.14924815 12.71001388 9.8076655 8.0625 8.5 C7.18787109 8.26152344 6.31324219 8.02304688 5.41210938 7.77734375 C3.27244561 7.19273616 1.13534428 6.60015656 -1 6 C-1.042721 4.33388095 -1.04063832 2.66617115 -1 1 C-0.67 0.67 -0.34 0.34 0 0 Z " fill="#E2E2E2" transform="translate(136,179)"/>
<path d="M0 0 C7.74937425 0.53758748 15.6836198 1.57613917 22.734375 5.01953125 C23.78515625 6.96875 23.78515625 6.96875 23.734375 9.01953125 C22.49829102 10.6796875 22.49829102 10.6796875 20.734375 12.01953125 C18.72900391 12.0246582 18.72900391 12.0246582 16.4609375 11.5078125 C15.6359375 11.32669922 14.8109375 11.14558594 13.9609375 10.95898438 C13.10242188 10.75208984 12.24390625 10.54519531 11.359375 10.33203125 C10.50859375 10.14447266 9.6578125 9.95691406 8.78125 9.76367188 C4.60954029 8.8182143 0.64996665 7.78396452 -3.265625 6.01953125 C-3.308346 4.3534122 -3.30626332 2.6857024 -3.265625 1.01953125 C-2.265625 0.01953125 -2.265625 0.01953125 0 0 Z " fill="#E1E1E1" transform="translate(339.265625,221.98046875)"/>
<path d="M0 0 C-1.1858237 3.37503669 -2.27573689 5.64722731 -5 8 C-5.99 7.67 -6.98 7.34 -8 7 C-7.1875 4.0625 -7.1875 4.0625 -6 1 C-3 0 -3 0 0 0 Z " fill="#B1B1B1" transform="translate(252,355)"/>
<path d="" fill="#000000" transform="translate(0,0)"/>
<path d="" fill="#000000" transform="translate(0,0)"/>
<path d="" fill="#000000" transform="translate(0,0)"/>
<path d="" fill="#000000" transform="translate(0,0)"/>
<path d="" fill="#000000" transform="translate(0,0)"/>
<path d="" fill="#000000" transform="translate(0,0)"/>
<path d="" fill="#000000" transform="translate(0,0)"/>
<path d="" fill="#000000" transform="translate(0,0)"/>
<path d="" fill="#000000" transform="translate(0,0)"/>
<path d="" fill="#000000" transform="translate(0,0)"/>
<path d="" fill="#000000" transform="translate(0,0)"/>
<path d="" fill="#000000" transform="translate(0,0)"/>
<path d="" fill="#000000" transform="translate(0,0)"/>
<path d="" fill="#000000" transform="translate(0,0)"/>
<path d="" fill="#000000" transform="translate(0,0)"/>
<path d="" fill="#000000" transform="translate(0,0)"/>
<path d="" fill="#000000" transform="translate(0,0)"/>
<path d="" fill="#000000" transform="translate(0,0)"/>
<path d="" fill="#000000" transform="translate(0,0)"/>
<path d="" fill="#000000" transform="translate(0,0)"/>
<path d="" fill="#000000" transform="translate(0,0)"/>
<path d="" fill="#000000" transform="translate(0,0)"/>
<path d="" fill="#000000" transform="translate(0,0)"/>
<path d="" fill="#000000" transform="translate(0,0)"/>
<path d="" fill="#000000" transform="translate(0,0)"/>
<path d="" fill="#000000" transform="translate(0,0)"/>
<path d="" fill="#000000" transform="translate(0,0)"/>
<path d="" fill="#000000" transform="translate(0,0)"/>
<path d="" fill="#000000" transform="translate(0,0)"/>
<path d="" fill="#000000" transform="translate(0,0)"/>
<path d="" fill="#000000" transform="translate(0,0)"/>
<path d="" fill="#000000" transform="translate(0,0)"/>
<path d="" fill="#000000" transform="translate(0,0)"/>
<path d="" fill="#000000" transform="translate(0,0)"/>
<path d="" fill="#000000" transform="translate(0,0)"/>
<path d="" fill="#000000" transform="translate(0,0)"/>
<path d="" fill="#000000" transform="translate(0,0)"/>
<path d="" fill="#000000" transform="translate(0,0)"/>
<path d="" fill="#000000" transform="translate(0,0)"/>
<path d="" fill="#000000" transform="translate(0,0)"/>
<path d="" fill="#000000" transform="translate(0,0)"/>
<path d="" fill="#000000" transform="translate(0,0)"/>
<path d="" fill="#000000" transform="translate(0,0)"/>
<path d="" fill="#000000" transform="translate(0,0)"/>
<path d="" fill="#000000" transform="translate(0,0)"/>
<path d="" fill="#000000" transform="translate(0,0)"/>
<path d="" fill="#000000" transform="translate(0,0)"/>
<path d="" fill="#000000" transform="translate(0,0)"/>
<path d="" fill="#000000" transform="translate(0,0)"/>
<path d="" fill="#000000" transform="translate(0,0)"/>
<path d="" fill="#000000" transform="translate(0,0)"/>
<path d="" fill="#000000" transform="translate(0,0)"/>
<path d="" fill="#000000" transform="translate(0,0)"/>
<path d="" fill="#000000" transform="translate(0,0)"/>
<path d="" fill="#000000" transform="translate(0,0)"/>
<path d="" fill="#000000" transform="translate(0,0)"/>
<path d="" fill="#000000" transform="translate(0,0)"/>
<path d="" fill="#000000" transform="translate(0,0)"/>
<path d="" fill="#000000" transform="translate(0,0)"/>
<path d="" fill="#000000" transform="translate(0,0)"/>
<path d="" fill="#000000" transform="translate(0,0)"/>
<path d="" fill="#000000" transform="translate(0,0)"/>
<path d="" fill="#000000" transform="translate(0,0)"/>
<path d="" fill="#000000" transform="translate(0,0)"/>
<path d="" fill="#000000" transform="translate(0,0)"/>
<path d="" fill="#000000" transform="translate(0,0)"/>
<path d="" fill="#000000" transform="translate(0,0)"/>
<path d="" fill="#000000" transform="translate(0,0)"/>
<path d="" fill="#000000" transform="translate(0,0)"/>
<path d="" fill="#000000" transform="translate(0,0)"/>
<path d="" fill="#000000" transform="translate(0,0)"/>
<path d="" fill="#000000" transform="translate(0,0)"/>
<path d="" fill="#000000" transform="translate(0,0)"/>
<path d="" fill="#000000" transform="translate(0,0)"/>
<path d="" fill="#000000" transform="translate(0,0)"/>
<path d="" fill="#000000" transform="translate(0,0)"/>
<path d="" fill="#000000" transform="translate(0,0)"/>
<path d="" fill="#000000" transform="translate(0,0)"/>
<path d="" fill="#000000" transform="translate(0,0)"/>
<path d="" fill="#000000" transform="translate(0,0)"/>
<path d="" fill="#000000" transform="translate(0,0)"/>
<path d="" fill="#000000" transform="translate(0,0)"/>
<path d="" fill="#000000" transform="translate(0,0)"/>
<path d="" fill="#000000" transform="translate(0,0)"/>
<path d="" fill="#000000" transform="translate(0,0)"/>
</svg>
